<?xml version="1.0" encoding="iso-8859-1"?>
<!-- Generator: Adobe Illustrator 16.0.0, SVG Export Plug-In . SVG Version: 6.00 Build 0)  -->
<!DOCTYPE svg PUBLIC "-//W3C//DTD SVG 1.1//EN" "http://www.w3.org/Graphics/SVG/1.1/DTD/svg11.dtd">
<svg xmlns="http://www.w3.org/2000/svg" xmlns:xlink="http://www.w3.org/1999/xlink" version="1.1" id="Capa_1" x="0px" y="0px" width="512px" height="512px" viewBox="0 0 28.069 28.068" style="enable-background:new 0 0 28.069 28.068;" xml:space="preserve">
<g>
	<path d="M22.984,16.959c0-0.888-0.468-1.637-1.142-2.115c0.674-0.48,1.142-1.229,1.142-2.118c0-1.459-1.187-2.646-2.646-2.646   h-5.203V2.645C15.135,1.186,13.711,0,11.961,0S8.788,1.186,8.788,2.645v7.563c-2.117,0.483-3.703,2.373-3.703,4.634v8.465   c0,2.625,2.136,4.762,4.761,4.762h10.493c1.459,0,2.646-1.186,2.646-2.645c0-0.889-0.468-1.638-1.142-2.117   c0.674-0.479,1.142-1.229,1.142-2.116s-0.468-1.636-1.142-2.116C22.516,18.596,22.984,17.848,22.984,16.959z M9.847,2.646   c0-0.875,0.949-1.587,2.116-1.587s2.116,0.712,2.116,1.587v7.435H9.847V2.646z M20.338,18.546h-8.465   c-0.292,0-0.529,0.237-0.529,0.529s0.237,0.528,0.529,0.528h8.465c0.875,0,1.588,0.713,1.588,1.588s-0.713,1.587-1.588,1.587   h-8.465c-0.292,0-0.529,0.235-0.529,0.528s0.237,0.528,0.529,0.528h8.465c0.875,0,1.588,0.712,1.588,1.589   c0,0.875-0.713,1.586-1.588,1.586H9.847c-2.041,0-3.703-1.662-3.703-3.703v-8.465c0-2.042,1.662-3.704,3.703-3.704h10.492   c0.875,0,1.588,0.712,1.588,1.587s-0.713,1.587-1.588,1.587h-8.465c-0.292,0-0.529,0.236-0.529,0.529   c0,0.291,0.237,0.527,0.529,0.527h8.465c0.875,0,1.588,0.712,1.588,1.587S21.213,18.546,20.338,18.546z" fill="#91DC5A"/>
</g>
<g>
</g>
<g>
</g>
<g>
</g>
<g>
</g>
<g>
</g>
<g>
</g>
<g>
</g>
<g>
</g>
<g>
</g>
<g>
</g>
<g>
</g>
<g>
</g>
<g>
</g>
<g>
</g>
<g>
</g>
</svg>
