<svg width="35" height="35" xmlns="http://www.w3.org/2000/svg" xmlns:svg="http://www.w3.org/2000/svg">
	<g display="inline">
		<g id="svg_1">
			<path d="m26.62685,20.4548c0,-0.8972 -0.47731,-1.65395 -1.16469,-2.13691c0.6874,-0.48497 1.16469,-1.24174 1.16469,-2.13994c0,-1.47411 -1.2106,-2.67341 -2.69858,-2.67341l-5.30641,0l0,-7.51202c0,-1.47411 -1.45229,-2.6724 -3.23708,-2.6724s-3.23606,1.19828 -3.23606,2.6724l0,7.64134c-2.15908,0.488 -3.77659,2.39759 -3.77659,4.682l0,8.55269c0,2.65219 2.17845,4.81133 4.85562,4.81133l10.70155,0c1.488,0 2.69858,-1.19828 2.69858,-2.6724c0,-0.89821 -0.47731,-1.65497 -1.16469,-2.13894c0.6874,-0.48396 1.16469,-1.24174 1.16469,-2.13793s-0.47731,-1.65294 -1.16469,-2.13793c0.68637,-0.48396 1.16368,-1.23971 1.16368,-2.13793l-0.00001,0.00004zm-13.39809,-14.46127c0,-0.88407 0.96787,-1.60344 2.15805,-1.60344s2.15805,0.71938 2.15805,1.60344l0,7.51202l-4.31611,0l0,-7.51202l0.00001,0zm10.6995,16.06471l-8.63324,0c-0.29781,0 -0.53952,0.23945 -0.53952,0.53448s0.24171,0.53347 0.53952,0.53347l8.63324,0c0.89239,0 1.61956,0.72039 1.61956,1.60445s-0.72717,1.60344 -1.61956,1.60344l-8.63324,0c-0.29781,0 -0.53952,0.23743 -0.53952,0.53347s0.24171,0.53347 0.53952,0.53347l8.63324,0c0.89239,0 1.61956,0.71938 1.61956,1.60546c0,0.88407 -0.72717,1.60242 -1.61956,1.60242l-10.6995,0c-2.08156,0 -3.77659,-1.67922 -3.77659,-3.74136l0,-8.55269c0,-2.06315 1.69504,-3.74237 3.77659,-3.74237l10.70052,0c0.89239,0 1.61956,0.71938 1.61956,1.60344s-0.72717,1.60344 -1.61956,1.60344l-8.63324,0c-0.29781,0 -0.53952,0.23844 -0.53952,0.53448c0,0.29402 0.24171,0.53246 0.53952,0.53246l8.63324,0c0.89239,0 1.61956,0.71938 1.61956,1.60344s-0.72818,1.60849 -1.62057,1.60849l0,0.00005z" fill="#91DC5A" id="svg_2"/>
		</g>
		<g id="svg_3"/>
		<g id="svg_4"/>
		<g id="svg_5"/>
		<g id="svg_6"/>
		<g id="svg_7"/>
		<g id="svg_8"/>
		<g id="svg_9"/>
		<g id="svg_10"/>
		<g id="svg_11"/>
		<g id="svg_12"/>
		<g id="svg_13"/>
		<g id="svg_14"/>
		<g id="svg_15"/>
		<g id="svg_16"/>
		<g id="svg_17"/>
	</g>
</svg>